HIERARCHY
ROOT Hips
{
  OFFSET -31.5692 30.0904 122.763
  CHANNELS 6 Xposition Yposition Zposition Zrotation Xrotation Yrotation
  JOINT LeftUpLeg
  {
    OFFSET 8.64259 1.95398 -2.38835
    CHANNELS 3 Zrotation Xrotation Yrotation
    JOINT LeftLeg
    {
      OFFSET 43.7702 0 0
      CHANNELS 3 Zrotation Xrotation Yrotation
      JOINT LeftFoot
      {
        OFFSET 40.6238 0 0
        CHANNELS 3 Zrotation Xrotation Yrotation
        JOINT LeftToeBase
        {
          OFFSET 12.7242 0 0
          CHANNELS 3 Zrotation Xrotation Yrotation
          End Site
          {
            OFFSET 0 0 0
          }
        }
      }
    }
  }
  JOINT RightUpLeg
  {
    OFFSET -8.2249 1.95398 -2.59336
    CHANNELS 3 Zrotation Xrotation Yrotation
    JOINT RightLeg
    {
      OFFSET 43.5653 0 0
      CHANNELS 3 Zrotation Xrotation Yrotation
      JOINT RightFoot
      {
        OFFSET 40.6238 0 0
        CHANNELS 3 Zrotation Xrotation Yrotation
        JOINT RightToeBase
        {
          OFFSET 12.7242 0 0
          CHANNELS 3 Zrotation Xrotation Yrotation
          End Site
          {
            OFFSET 0 0 0
          }
        }
      }
    }
  }
  JOINT Spine
  {
    OFFSET 0.165834 0.87714 6.61349
    CHANNELS 3 Zrotation Xrotation Yrotation
    JOINT Spine1
    {
      OFFSET 7.38963 1.71661e-005 0
      CHANNELS 3 Zrotation Xrotation Yrotation
      JOINT Spine2
      {
        OFFSET 11.9445 1.14441e-005 0
        CHANNELS 3 Zrotation Xrotation Yrotation
        JOINT Spine3
        {
          OFFSET 14.7254 4.19617e-005 0
          CHANNELS 3 Zrotation Xrotation Yrotation
          JOINT Spine4
          {
            OFFSET 10.9679 0 0
            CHANNELS 3 Zrotation Xrotation Yrotation
            JOINT RightShoulder
            {
              OFFSET 2.46616 -1.6653 3.69651
              CHANNELS 3 Zrotation Xrotation Yrotation
              JOINT RightArm
              {
                OFFSET 13.0012 0 0
                CHANNELS 3 Zrotation Xrotation Yrotation
                JOINT RightForeArm
                {
                  OFFSET 28.7848 1.62311e-005 0
                  CHANNELS 3 Zrotation Xrotation Yrotation
                  JOINT RightHand
                  {
                    OFFSET 26.5688 1.62095e-005 0
                    CHANNELS 3 Zrotation Xrotation Yrotation
                    End Site
                    {
                      OFFSET 0 0 0
                    }
                  }
                }
              }
            }
            JOINT LeftShoulder
            {
              OFFSET 2.38034 -1.29275 -3.7523
              CHANNELS 3 Zrotation Xrotation Yrotation
              JOINT LeftArm
              {
                OFFSET 16.3182 6.07031e-005 0
                CHANNELS 3 Zrotation Xrotation Yrotation
                JOINT LeftForeArm
                {
                  OFFSET 27.0901 0 0
                  CHANNELS 3 Zrotation Xrotation Yrotation
                  JOINT LeftHand
                  {
                    OFFSET 24.5451 1.51738e-005 0
                    CHANNELS 3 Zrotation Xrotation Yrotation
                    End Site
                    {
                      OFFSET 0 0 0
                    }
                  }
                }
              }
            }
            JOINT Neck
            {
              OFFSET 5.0226 -0.0266342 0
              CHANNELS 3 Zrotation Xrotation Yrotation
              JOINT Head
              {
                OFFSET 6.69364 2.86102e-005 0
                CHANNELS 3 Zrotation Xrotation Yrotation
                End Site
                {
                  OFFSET 0 0 0
                }
              }
            }
          }
        }
      }
    }
  }
}
MOTION
Frames:	7
Frame Time:	0.0416667
262.633 95.7567 241.689 -90.0541 44.3617 -88.3792 -176.061 29.9943 82.7434 -22.1749 9.54158 -3.11964 63.1005 1.49732 -0.686648 17.987 -4.24966 -2.22797 163.277 -29.4434 84.7782 -74.8767 -15.0041 -1.96559 62.023 0.334421 -2.05955 116.724 -27.3117 20.6574 2.90615 7.42806 -89.5828 12.0279 5.97476 0.180379 0.370719 5.97688 -0.0837268 -22.2661 5.64342 1.97347 -2.25345 5.64341 1.97346 91.4115 -16.798 -109.617 21.9182 41.3575 6.68114 -71.6084 -9.29037 -97.4239 -2.2574 -3.05973 -48.1771 -82.3774 -43.9021 89.6535 -10.6635 35.5188 30.5783 126.722 3.63529 -68.9869 89.702 -27.974 -17.4941 14.6021 -11.5233 -7.10599 -9.38317 -9.27319 -1.50369 
246.919 93.4464 225.448 -92.4001 38.4613 -91.9342 -171.908 25.0281 76.468 -45.4142 14.8485 -6.12596 77.7109 11.7804 5.89995 4.8615 -13.3832 1.81123 156.656 -10.0982 86.3958 -111.71 -7.42379 -3.68347 63.2295 -1.5641 -4.99807 63.2191 -15.2748 3.28415 1.26256 7.87547 -88.8269 11.095 3.05774 2.03774 -0.573817 3.14444 1.90115 -23.1122 2.3042 2.86231 -3.09955 2.30417 2.86229 93.313 -26.2613 -101.178 18.1039 41.821 16.9865 -19.6678 4.59839 -123.901 23.9488 5.80696 22.152 -90.3945 -55.0909 79.1845 -4.73575 11.5437 3.77086 83.8833 34.485 -78.5274 94.4565 -56.7855 -43.869 15.0414 -9.91935 -14.6826 -7.44798 -5.8078 3.19981 
232.835 91.9694 211.723 -92.1052 32.8975 -96.0694 -176.231 5.96693 71.6521 -44.7874 15.0889 -2.96529 90.2379 21.5668 3.93824 12.6466 -9.30488 2.54297 165.901 21.9197 74.6396 -133.672 -13.3688 -5.12719 61.0241 -1.57949 -6.78942 14.9992 4.50246 5.81359 -1.03021 7.73005 -88.1896 11.4078 -1.20509 3.72699 -0.26827 -1.04006 3.77631 -22.7734 -2.26878 3.19352 -2.76073 -2.26878 3.19352 94.8659 -26.8179 -97.8003 -5.41194 43.4988 40.7954 -26.6359 6.56832 -152.946 42.1487 12.1819 23.3615 -91.4209 -52.8845 77.2568 -5.96444 3.54333 -29.9382 37.9693 24.0834 -61.7191 46.4173 -33.9212 -54.9593 17.7876 -4.51427 -16.1632 -13.0728 0.0716633 3.85443 
217.182 93.0697 194.693 -90.9692 36.3621 -90.2254 -170.322 -10.9888 93.0422 -26.1026 17.6018 -1.8208 86.2544 19.3629 2.20217 26.523 -2.34871 3.24863 175.758 42.1939 91.0851 -122.101 -6.84969 -4.66135 71.5543 -7.28814 -8.02545 15.9048 3.51668 7.85147 -2.38057 7.49376 -89.2995 11.9418 -4.40218 1.88562 0.276907 -4.31491 2.0778 -22.319 -4.76502 0.472616 -2.30637 -4.765 0.47261 96.6901 -20.5848 -95.1456 50.642 -22.0699 43.8814 124.176 -52.077 -177.107 73.0274 7.09394 2.93929 -89.7767 -39.2184 76.5342 -6.03772 -8.70015 -44.4569 147.662 22.8421 -104.478 20.3452 0.30409 -96.7737 20.4342 4.70868 -13.8674 -17.3239 8.17274 6.88592 
199.331 97.1923 177.066 -91.6226 37.1178 -82.8702 -164.776 -29.7204 99.2597 -8.62083 24.2148 2.02416 55.7101 -1.96929 1.19937 26.4481 -0.605358 -1.41353 178.147 46.1479 97.4149 -85.5376 4.09893 -2.84545 73.7589 -6.15961 -4.50812 15.9716 3.48636 7.8612 -3.8573 7.63177 -90.5668 11.6239 -7.93847 -0.305944 -0.022677 -7.94418 0.045981 -22.7369 -7.47739 -2.69108 -2.72425 -7.47738 -2.69109 97.8388 -10.2055 -95.1339 27.8816 -11.1835 41.9054 -20.5201 -63.6994 -48.8561 -78.1858 22.0985 -42.8475 -85.5993 -21.2583 79.4844 -1.19162 -17.2111 -37.8725 138.666 20.5236 -98.4084 4.25768 15.7419 -115.602 26.41 12.3887 -14.6547 -27.4502 14.3882 14.2901 
181.918 97.9477 159.781 -88.3511 37.8768 -81.9543 -161.285 -34.5039 104.073 -13.3086 12.5698 3.19871 58.212 -0.343016 1.91742 15.7637 -8.33204 3.95792 -177.796 40.181 96.0435 -38.9931 -9.75014 -1.32479 66.9926 -4.85047 -3.10262 19.7394 2.15062 7.2375 -4.1349 7.64581 -91.4017 11.526 -8.881 -1.88292 -0.115194 -8.95522 -1.48719 -22.8432 -7.90253 -4.47953 -2.8305 -7.90254 -4.47953 98.2386 -5.99358 -95.2434 30.019 -10.724 49.9853 -7.69174 -39.4003 -40.7808 -12.9686 -1.26851 -31.334 -84.2873 -4.42371 76.8348 4.98057 -19.3308 -28.6992 117.039 27.7921 -95.58 -5.44809 20.1306 -97.6976 29.1979 13.2774 -19.668 -30.2764 15.4685 21.7385 
164.464 96.4106 142.602 -93.2949 39.0883 -82.4579 -160.395 -35.0327 102.36 -40.6653 3.34818 1.35018 61.3177 -0.260857 3.97534 20.4307 -4.42939 1.05389 -178.081 24.6016 93.5963 -7.78142 -18.2043 -1.00096 58.8706 -2.00821 -1.42376 23.2185 1.60459 3.92178 -3.95396 7.61658 -90.9674 11.6292 -8.31839 -1.06481 -0.0150242 -8.35713 -0.695101 -22.7349 -7.61177 -3.52946 -2.72225 -7.61176 -3.52946 97.6597 -8.63233 -96.6644 34.768 -5.21756 54.3317 -26.0162 -49.2555 -54.6223 -50.8421 1.67923 -15.4306 -83.5791 -8.26656 79.4415 6.7129 -8.74373 -29.8755 119.099 28.802 -92.2714 -10.0068 20.5765 -80.0547 22.9958 15.7813 -11.2272 -25.0382 16.3743 14.6486 
